<svg xmlns="http://www.w3.org/2000/svg" viewBox="0 0 512 512" width="512" height="512">
  <defs>
    <radialGradient id="bg" cx="50%" cy="38%" r="75%">
      <stop offset="0%" stop-color="#3a2456"/>
      <stop offset="100%" stop-color="#2a1b3d"/>
    </radialGradient>
    <linearGradient id="petal" x1="0" y1="0" x2="0" y2="1">
      <stop offset="0%" stop-color="#ffffff"/>
      <stop offset="100%" stop-color="#dfe0ea"/>
    </linearGradient>
    <linearGradient id="petalDark" x1="0" y1="0" x2="0" y2="1">
      <stop offset="0%" stop-color="#ececf2"/>
      <stop offset="100%" stop-color="#c8c9d6"/>
    </linearGradient>
  </defs>
  
  <!-- leaves -->
  <path d="M256 372 C300 360 340 372 356 408 C312 416 276 404 256 372 Z" fill="#3f6b46"/>
  <path d="M256 372 C212 360 172 372 156 408 C200 416 236 404 256 372 Z" fill="#356040"/>
  <!-- stem -->
  <rect x="250" y="330" width="12" height="70" rx="6" fill="#3f6b46"/>
  <!-- outer petals -->
  <g>
    <path d="M256 168 C176 168 150 248 176 300 C200 348 256 356 256 356 C256 356 312 348 336 300 C362 248 336 168 256 168 Z" fill="url(#petalDark)"/>
    <path d="M256 196 C200 196 178 256 198 298 C218 336 256 344 256 344 C256 344 294 336 314 298 C334 256 312 196 256 196 Z" fill="url(#petal)"/>
  </g>
  <!-- inner spiral petals -->
  <path d="M256 220 C224 222 210 256 226 286 C240 312 256 318 256 318 C256 318 272 312 286 286 C302 256 288 222 256 220 Z" fill="url(#petalDark)"/>
  <path d="M256 240 C236 242 228 264 240 286 C250 304 256 310 256 310 C256 310 262 304 272 286 C284 264 276 242 256 240 Z" fill="url(#petal)"/>
  <!-- bud center -->
  <path d="M256 262 C244 264 240 280 250 296 C254 302 256 304 256 304 C256 304 258 302 262 296 C272 280 268 264 256 262 Z" fill="#a9aab8"/>
  <!-- gold dot -->
  <circle cx="256" cy="286" r="7" fill="#d6a441"/>
</svg>
