<svg xmlns="http://www.w3.org/2000/svg" width="100%" viewBox="0 0 680 322" preserveAspectRatio="xMidYMid slice" role="img">
<title>Sunset over Greyhound Rock</title>
<desc>A spinning tie-dye light melting into a sunset over Greyhound Rock with dancing silhouettes in the lot.</desc>
<defs>
<linearGradient id="sky" x1="0" y1="0" x2="0" y2="1">
<stop offset="0" stop-color="#2b1055"/><stop offset="0.34" stop-color="#7b2d8e"/><stop offset="0.6" stop-color="#d6336c"/><stop offset="0.82" stop-color="#ff7a45"/><stop offset="1" stop-color="#ffd36e"/>
</linearGradient>
<radialGradient id="sung" cx="0.5" cy="0.5" r="0.5"><stop offset="0" stop-color="#fff3c4"/><stop offset="0.5" stop-color="#ffd166"/><stop offset="1" stop-color="#ff9e4f" stop-opacity="0"/></radialGradient>
<linearGradient id="sea" x1="0" y1="0" x2="0" y2="1"><stop offset="0" stop-color="#ffb46b"/><stop offset="0.25" stop-color="#c64d83"/><stop offset="1" stop-color="#241a52"/></linearGradient>
<g id="dA" stroke-linecap="round"><circle cx="0" cy="-40" r="5.6"/><path d="M0,-34 C-2.2,-34 -3,-27 -3,-20 L-5.5,-2 -2,-2 -1,-15 1,-15 2,-2 5.5,-2 3,-20 C3,-27 2.2,-34 0,-34 Z"/><path d="M-2,-29 C-8,-33 -12,-40 -12,-47 M2,-29 C8,-33 12,-40 12,-47" fill="none" stroke-width="3"/></g>
<g id="dB" stroke-linecap="round"><circle cx="0" cy="-40" r="5.6"/><path d="M0,-34 C-2.2,-34 -3,-27 -3,-20 L-6,-2 -2.5,-2 -1,-15 1,-15 3.5,-2 7,-2 3,-20 C3,-27 2.2,-34 0,-34 Z"/><path d="M-2,-29 C-9,-30 -16,-28 -20,-23 M2,-29 C9,-31 15,-34 19,-40" fill="none" stroke-width="3"/></g>
<g id="dC" stroke-linecap="round"><circle cx="0" cy="-40" r="5.6"/><path d="M0,-34 C-2.2,-34 -3,-27 -3,-20 L-7,-3 -3.5,-2 -1,-15 1.4,-14 6,-4 9,-6 3,-20 C3,-27 2.2,-34 0,-34 Z"/><path d="M-2,-29 C-8,-34 -11,-42 -10,-49 M2,-29 C8,-27 12,-23 13,-17" fill="none" stroke-width="3"/></g>
</defs>

<rect x="0" y="0" width="680" height="262" fill="url(#sky)"/>
<circle cx="408" cy="162" r="92" fill="url(#sung)"/>
<circle cx="408" cy="170" r="44" fill="#ffe08a"/>

<g transform="translate(95,116)">
<g><animateTransform attributeName="transform" type="rotate" from="0 0 0" to="360 0 0" dur="18s" repeatCount="indefinite"/>
<circle r="86" fill="#ff4d6d"/><circle r="72" fill="#ff9f1c"/><circle r="59" fill="#ffe14d"/><circle r="46" fill="#36d39a"/><circle r="34" fill="#2bb3ff"/><circle r="22" fill="#8a5cff"/><circle r="11" fill="#ff5db1"/>
<path d="M0,-86 L9,-60 -9,-60 Z" fill="#fff5fa" opacity="0.45"/><path d="M0,86 L9,60 -9,60 Z" fill="#fff5fa" opacity="0.45"/><path d="M-86,0 L-60,9 -60,-9 Z" fill="#fff5fa" opacity="0.45"/><path d="M86,0 L60,9 60,-9 Z" fill="#fff5fa" opacity="0.45"/>
</g></g>
<rect x="0" y="24" width="232" height="200" fill="#2b1055" opacity="0.35"/>

<rect x="0" y="210" width="680" height="56" fill="url(#sea)"/>
<g fill="#ffd98a" opacity="0.7"><rect x="388" y="216" width="40" height="3" rx="1.5"/><rect x="384" y="224" width="48" height="3" rx="1.5"/><rect x="380" y="233" width="56" height="3" rx="1.5"/><rect x="386" y="243" width="44" height="3" rx="1.5"/></g>

<path d="M508,214 C510,158 532,116 566,95 C602,118 616,162 620,214 Z" fill="#1d0f33"/>
<path d="M622,214 C624,190 636,176 650,172 C664,182 668,198 670,214 Z" fill="#22123a"/>

<rect x="0" y="262" width="680" height="60" fill="#241634"/>
<rect x="0" y="262" width="680" height="3" fill="#3a2350"/>
<g fill="#150a29" stroke="#150a29">
<use href="#dC" transform="translate(252,300) scale(1.15)"/><use href="#dA" transform="translate(296,302) scale(1.3)"/><use href="#dB" transform="translate(346,300) scale(1.15)"/><use href="#dA" transform="translate(392,303) scale(-1.35,1.35)"/><use href="#dC" transform="translate(442,301) scale(1.25)"/><use href="#dB" transform="translate(492,303) scale(-1.3,1.3)"/><use href="#dA" transform="translate(540,300) scale(1.2)"/><use href="#dC" transform="translate(588,302) scale(-1.25,1.25)"/><use href="#dB" transform="translate(632,301) scale(1.1)"/>
</g>
<text x="20" y="312" font-family="Georgia, serif" font-size="13" fill="#ffe9c7">dead_dance · greyhound rock</text>
</svg>